<?xml version="1.0" encoding="UTF-8" standalone="no"?>
<svg
   viewBox="0 0 228.52667 228.52666"
   height="228.52666"
   width="228.52666"
   xml:space="preserve"
   id="svg2"
   version="1.1"
   sodipodi:docname="umu-logo-left-neg-SE.svg"
   inkscape:version="1.4 (e7c3feb100, 2024-10-09)"
   inkscape:export-filename="umu-logo-left-neg-SE.png"
   inkscape:export-xdpi="300"
   inkscape:export-ydpi="300"
   xmlns:inkscape="http://www.inkscape.org/namespaces/inkscape"
   xmlns:sodipodi="http://sodipodi.sourceforge.net/DTD/sodipodi-0.dtd"
   xmlns="http://www.w3.org/2000/svg"
   xmlns:svg="http://www.w3.org/2000/svg"
   xmlns:rdf="http://www.w3.org/1999/02/22-rdf-syntax-ns#"
   xmlns:cc="http://creativecommons.org/ns#"
   xmlns:dc="http://purl.org/dc/elements/1.1/"><sodipodi:namedview
     id="namedview1"
     pagecolor="#ffffff"
     bordercolor="#000000"
     borderopacity="0.25"
     inkscape:showpageshadow="2"
     inkscape:pageopacity="0.0"
     inkscape:pagecheckerboard="0"
     inkscape:deskcolor="#d1d1d1"
     inkscape:zoom="0.61474433"
     inkscape:cx="-392.0329"
     inkscape:cy="14.640233"
     inkscape:window-width="3785"
     inkscape:window-height="2069"
     inkscape:window-x="55"
     inkscape:window-y="0"
     inkscape:window-maximized="1"
     inkscape:current-layer="svg2" /><metadata
     id="metadata8"><rdf:RDF><cc:Work
         rdf:about=""><dc:format>image/svg+xml</dc:format><dc:type
           rdf:resource="http://purl.org/dc/dcmitype/StillImage" /></cc:Work></rdf:RDF></metadata><defs
     id="defs6" /><path
     id="path16"
     style="fill:#ffffff;fill-opacity:1;fill-rule:nonzero;stroke:none;stroke-width:0.133333"
     d="m 114.2636,0 c 63.10573,0 114.26306,51.157332 114.26306,114.26306 0,63.10627 -51.15733,114.2636 -114.26306,114.2636 C 51.157332,228.52666 0,177.36933 0,114.26306 0,51.157332 51.157332,0 114.2636,0" /><path
     id="path18"
     style="fill:#ffffff;fill-opacity:1;fill-rule:nonzero;stroke:none;stroke-width:0.133333"
     d="m 112.22813,125.32093 c -0.5552,0.11507 -1.0828,-0.16253 -1.188,-0.63493 -0.10467,-0.47027 0.25987,-0.94894 0.81507,-1.07187 0.5532,-0.12027 1.0844,0.16147 1.18653,0.63187 0.10613,0.47333 -0.26253,0.95093 -0.8136,1.07493 z M 103.36666,109.622 c 1.6292,0.124 1.90414,0.538 2.06827,0.9844 0.1656,0.45 0.0463,0.79053 -1.0464,2.82386 -0.0839,0.16094 0.34893,0.362 0.44747,0.24854 5.48693,-6.35267 14.33746,-3.55734 16.15093,-2.88334 2.0756,0.77334 1.7256,1.83694 1.41,2.20054 -1.2704,1.4572 -5.94853,4.13373 -6.92613,4.53333 -0.9708,0.39893 -1.30107,0.33947 -1.90107,-0.27147 -0.59893,-0.6088 -1.06667,-2.49106 -1.138,-2.714 -0.0687,-0.22453 0.0209,-2.04373 -0.005,-2.24373 -0.0224,-0.20107 -0.48386,-0.236 -0.538,-0.0464 -0.0604,0.188 -0.42026,1.59693 -0.50266,1.81933 -0.0837,0.22387 -0.3624,0.41094 -0.6,0.37854 -0.23374,-0.0375 -2.426,-0.72707 -2.5796,-0.7656 -0.15414,-0.0287 -0.3172,0.3464 -0.19947,0.45 0.11813,0.10373 2.34573,1.512 2.80147,1.80373 0.45946,0.29427 0.78493,1.09427 0.95106,2.0432 0.0489,0.31307 -0.0681,0.788 -0.62346,0.9052 -0.55614,0.11773 -2.87334,-0.5688 -3.3776,-0.76307 -0.50467,-0.19533 -0.9848,-1.452 -1.0624,-1.66973 -0.0767,-0.2208 -0.57094,-0.14227 -0.58187,0.1156 -0.0104,0.1844 0.0527,1.2312 -0.09,1.53907 -0.20267,0.44586 -1.03707,0.7916 -2.36773,0.95933 -0.22814,0.0292 -0.19587,0.62813 0.0453,0.63187 1.15573,0.0171 1.50467,0.51453 1.6,0.8448 0.0921,0.33173 -0.008,0.4176 -0.61467,1.95 -0.12026,0.29213 0.43027,0.4588 0.53907,0.33333 1.7224,-1.97867 3.112,-2.4292 5.46307,-2.34533 0.50306,0.0156 0.724,0.0681 0.5088,0.35773 -0.71774,0.9828 -2.64734,3.32093 -7.45254,7.8652 -0.38906,0.36707 -0.44226,0.94107 -0.16253,1.33533 0.074,0.10627 1.35733,1.9344 1.44173,2.05414 0.0823,0.1188 0.2588,0.18853 0.45,0.1048 4.0796,-1.7496 6.8036,-2.52667 6.8036,-2.52667 2.35254,3.94013 4.20574,6.4548 5.75307,6.00947 1.55053,-0.44014 2.0828,-2.67814 2.0828,-2.67814 0,0 1.1256,1.6916 2.81053,2.262 0.1604,0.0561 0.23067,-0.0625 0.23067,-0.19173 0,-0.22027 0,-11.8932 0,-11.8932 0,0 -4.6104,0 -4.7828,0 -0.1724,0 -0.286,-0.0365 -0.42347,-0.12653 -3.56506,-2.38387 -4.064,-2.7724 -3.09426,-3.27814 0.23493,-0.10466 0.46146,-0.20573 0.686,-0.30946 5.93333,-2.70467 9.29893,-5.25614 9.29893,-7.07027 0,-1.95253 -2.0672,-5.3896 -4.18333,-6.99787 -0.1224,-0.0928 -0.448,0.30467 -0.36414,0.40054 0.0824,0.0916 1.45627,1.99786 1.07974,2.61973 -0.37454,0.62547 -2.74787,-0.0943 -3.61934,-0.58907 -0.86973,-0.49213 -1.87493,-2.55466 -2.41706,-3.38693 -0.5412,-0.83707 -1.52094,-1.53653 -1.63654,-1.59533 -0.1188,-0.0599 -0.3896,0.2812 -0.2708,0.3984 0.51827,0.5172 1.8328,2.6948 1.31507,3.65626 -0.51867,0.964 -2.5744,1.10627 -3.45467,0.2688 -0.88066,-0.8324 -1.964,-3.7376 -2.0464,-3.9344 -0.0828,-0.20106 -0.5396,-0.026 -0.5156,0.102 0.0516,0.29694 0.3984,2.15534 -0.4588,2.7172 -0.85986,0.56574 -2.5756,-0.17653 -3.5032,-0.66973 -0.1916,-0.10053 -0.5052,0.2484 -0.37653,0.35253 0.13027,0.10574 1.976,1.82294 1.976,2.22347 0,0.398 -1.05827,0.66827 -3.02133,1.16413 -0.18534,0.0432 -0.1296,0.47907 0.0235,0.49374" /><path
     id="path20"
     style="fill:#ffffff;fill-opacity:1;fill-rule:nonzero;stroke:none;stroke-width:0.133333"
     d="m 87.933331,125.32093 c -0.555733,0.11507 -1.088,-0.16253 -1.1896,-0.63493 -0.1052,-0.47027 0.259333,-0.94894 0.813067,-1.07187 0.552533,-0.12027 1.084933,0.16147 1.188533,0.63187 0.102,0.47333 -0.262533,0.95093 -0.812,1.07493 z M 79.068798,109.622 c 1.6312,0.124 1.904667,0.538 2.069733,0.9844 0.164534,0.45 0.04747,0.79053 -1.045866,2.82386 -0.0848,0.16094 0.348533,0.362 0.4464,0.24854 5.488533,-6.35267 14.336933,-3.55734 16.150533,-2.88334 2.078133,0.77334 1.726533,1.83694 1.4088,2.20054 -1.268134,1.4572 -5.9468,4.13373 -6.922934,4.53333 -0.973866,0.39893 -1.304666,0.33947 -1.903066,-0.27147 -0.598934,-0.6088 -1.066667,-2.49106 -1.138534,-2.714 -0.06667,-0.22453 0.02187,-2.04373 -0.0041,-2.24373 -0.0204,-0.20107 -0.4828,-0.236 -0.539067,-0.0464 -0.05947,0.188 -0.418266,1.59693 -0.5016,1.81933 -0.0828,0.22387 -0.363066,0.41094 -0.598933,0.37854 -0.236,-0.0375 -2.427066,-0.72707 -2.578133,-0.7656 -0.154667,-0.0287 -0.3172,0.3464 -0.200533,0.45 0.1188,0.10373 2.3416,1.512 2.800533,1.80373 0.459333,0.29427 0.784933,1.09427 0.948933,2.0432 0.05267,0.31307 -0.0656,0.788 -0.6208,0.9052 -0.557866,0.11773 -2.874,-0.5688 -3.379733,-0.76307 -0.504133,-0.19533 -0.983867,-1.452 -1.061467,-1.66973 -0.07547,-0.2208 -0.568666,-0.14227 -0.580666,0.1156 -0.0089,0.1844 0.05,1.2312 -0.0932,1.53907 -0.201067,0.44586 -1.0344,0.7916 -2.365734,0.95933 -0.2276,0.0292 -0.192666,0.62813 0.04693,0.63187 1.1552,0.0171 1.5016,0.51453 1.597866,0.8448 0.0932,0.33173 -0.0041,0.4176 -0.615066,1.95 -0.1188,0.29213 0.430666,0.4588 0.540666,0.33333 1.723334,-1.97867 3.111467,-2.4292 5.461467,-2.34533 0.504133,0.0156 0.726,0.0681 0.511866,0.35773 -0.719199,0.9828 -2.648399,3.32093 -7.453599,7.8652 -0.3896,0.36707 -0.4416,0.94107 -0.164,1.33533 0.07547,0.10627 1.358266,1.9344 1.442666,2.05414 0.08067,0.1188 0.258267,0.18853 0.447334,0.1048 4.081333,-1.7496 6.803733,-2.52667 6.803733,-2.52667 2.355733,3.94013 4.208266,6.4548 5.757733,6.00947 1.547467,-0.44014 2.080267,-2.67814 2.080267,-2.67814 0,0 1.123466,1.6916 2.809866,2.262 0.159867,0.0561 0.231734,-0.0625 0.231734,-0.19173 0,-0.22027 0,-11.8932 0,-11.8932 0,0 -4.607734,0 -4.781734,0 -0.1724,0 -0.2864,-0.0365 -0.4244,-0.12653 -3.565733,-2.38387 -4.063066,-2.7724 -3.0928,-3.27814 0.231334,-0.10466 0.460934,-0.20573 0.685467,-0.30946 5.934933,-2.70467 9.29787,-5.25614 9.29787,-7.07027 0,-1.95253 -2.069203,-5.3896 -4.18227,-6.99787 -0.121867,-0.0928 -0.447333,0.30467 -0.366133,0.40054 0.08173,0.0916 1.457333,1.99786 1.079733,2.61973 -0.3724,0.62547 -2.747467,-0.0943 -3.617733,-0.58907 -0.8704,-0.49213 -1.876534,-2.55466 -2.4188,-3.38693 -0.5396,-0.83707 -1.518667,-1.53653 -1.635867,-1.59533 -0.1172,-0.0599 -0.388133,0.2812 -0.2704,0.3984 0.514133,0.5172 1.8344,2.6948 1.316133,3.65626 -0.518133,0.964 -2.575466,1.10627 -3.458266,0.2688 -0.879733,-0.8324 -1.961467,-3.7376 -2.044267,-3.9344 -0.08173,-0.20106 -0.538533,-0.026 -0.514666,0.102 0.0516,0.29694 0.398533,2.15534 -0.4588,2.7172 -0.8588,0.56574 -2.574934,-0.17653 -3.504667,-0.66973 -0.1912,-0.10053 -0.5032,0.2484 -0.374533,0.35253 0.127066,0.10574 1.973466,1.82294 1.973466,2.22347 0,0.398 -1.056266,0.66827 -3.0192,1.16413 -0.187066,0.0432 -0.129733,0.47907 0.02187,0.49374" /><path
     id="path22"
     style="fill:#ffffff;fill-opacity:1;fill-rule:nonzero;stroke:none;stroke-width:0.133333"
     d="m 136.524,125.32093 c -0.556,0.11507 -1.08134,-0.16253 -1.18667,-0.63493 -0.10267,-0.47027 0.26,-0.94894 0.81333,-1.07187 0.552,-0.12027 1.08534,0.16147 1.18667,0.63187 0.104,0.47333 -0.25867,0.95093 -0.81333,1.07493 z M 127.66146,109.622 c 1.6328,0.124 1.90414,0.538 2.07347,0.9844 0.16453,0.45 0.0443,0.79053 -1.04853,2.82386 -0.0853,0.16094 0.348,0.362 0.44533,0.24854 5.48827,-6.35267 14.33893,-3.55734 16.15093,-2.88334 2.08134,0.77334 1.724,1.83694 1.40934,2.20054 -1.26934,1.4572 -5.948,4.13373 -6.92134,4.53333 -0.97733,0.39893 -1.30533,0.33947 -1.90666,-0.27147 -0.59867,-0.6088 -1.06534,-2.49106 -1.13467,-2.714 -0.072,-0.22453 0.0173,-2.04373 -0.005,-2.24373 -0.0213,-0.20107 -0.48,-0.236 -0.54,-0.0464 -0.06,0.188 -0.41734,1.59693 -0.50267,1.81933 -0.0813,0.22387 -0.36267,0.41094 -0.59867,0.37854 -0.236,-0.0375 -2.4248,-0.72707 -2.57746,-0.7656 -0.15307,-0.0287 -0.31827,0.3464 -0.20107,0.45 0.1188,0.10373 2.3452,1.512 2.80387,1.80373 0.45733,0.29427 0.78,1.09427 0.94533,2.0432 0.0533,0.31307 -0.064,0.788 -0.62267,0.9052 -0.55466,0.11773 -2.8708,-0.5688 -3.37386,-0.76307 -0.50574,-0.19533 -0.98707,-1.452 -1.06147,-1.66973 -0.0776,-0.2208 -0.57293,-0.14227 -0.58493,0.1156 -0.009,0.1844 0.0536,1.2312 -0.0891,1.53907 -0.2036,0.44586 -1.03587,0.7916 -2.36867,0.95933 -0.22813,0.0292 -0.1964,0.62813 0.0473,0.63187 1.15733,0.0171 1.50413,0.51453 1.59946,0.8448 0.0912,0.33173 -0.006,0.4176 -0.61666,1.95 -0.1188,0.29213 0.4308,0.4588 0.538,0.33333 1.72613,-1.97867 3.112,-2.4292 5.4632,-2.34533 0.50533,0.0156 0.72533,0.0681 0.51066,0.35773 -0.716,0.9828 -2.64773,3.32093 -7.45253,7.8652 -0.388,0.36707 -0.44107,0.94107 -0.16093,1.33533 0.0715,0.10627 1.35733,1.9344 1.4412,2.05414 0.0807,0.1188 0.25733,0.18853 0.44786,0.1048 4.07907,-1.7496 6.80307,-2.52667 6.80307,-2.52667 2.356,3.94013 4.20933,6.4548 5.756,6.00947 1.54933,-0.44014 2.08267,-2.67814 2.08267,-2.67814 0,0 1.12266,1.6916 2.80933,2.262 0.16,0.0561 0.232,-0.0625 0.232,-0.19173 0,-0.22027 0,-11.8932 0,-11.8932 0,0 -4.61067,0 -4.78267,0 -0.17333,0 -0.28666,-0.0365 -0.42133,-0.12653 -3.568,-2.38387 -4.06667,-2.7724 -3.09467,-3.27814 0.23067,-0.10466 0.46,-0.20573 0.68534,-0.30946 5.93466,-2.70467 9.29733,-5.25614 9.29733,-7.07027 0,-1.95253 -2.06933,-5.3896 -4.184,-6.99787 -0.12133,-0.0928 -0.44533,0.30467 -0.36267,0.40054 0.08,0.0916 1.45734,1.99786 1.08,2.61973 -0.37466,0.62547 -2.752,-0.0943 -3.62,-0.58907 -0.87066,-0.49213 -1.876,-2.55466 -2.42133,-3.38693 -0.53733,-0.83707 -1.52,-1.53653 -1.63467,-1.59533 -0.11466,-0.0599 -0.388,0.2812 -0.268,0.3984 0.51334,0.5172 1.83467,2.6948 1.31334,3.65626 -0.51467,0.964 -2.57067,1.10627 -3.45334,0.2688 -0.88266,-0.8324 -1.96666,-3.7376 -2.044,-3.9344 -0.0867,-0.20106 -0.54266,-0.026 -0.52133,0.102 0.0557,0.29694 0.40267,2.15534 -0.4552,2.7172 -0.85933,0.56574 -2.57653,-0.17653 -3.5052,-0.66973 -0.1896,-0.10053 -0.50213,0.2484 -0.37453,0.35253 0.1272,0.10574 1.97506,1.82294 1.97506,2.22347 0,0.398 -1.0584,0.66827 -3.02133,1.16413 -0.18707,0.0432 -0.1292,0.47907 0.0213,0.49374" /><path
     id="path24"
     style="fill:#231f20;fill-opacity:1;fill-rule:nonzero;stroke:none;stroke-width:0.133333"
     d="m 79.046931,109.12826 c 1.962934,-0.49586 3.0192,-0.76613 3.0192,-1.16413 0,-0.40053 -1.8464,-2.11773 -1.973466,-2.22347 -0.128667,-0.10413 0.183333,-0.45306 0.374533,-0.35253 0.929733,0.4932 2.645867,1.23547 3.504667,0.66973 0.857333,-0.56186 0.5104,-2.42026 0.4588,-2.7172 -0.02387,-0.128 0.432933,-0.30306 0.514666,-0.102 0.0828,0.1968 1.164534,3.102 2.044267,3.9344 0.8828,0.83747 2.940133,0.6952 3.458266,-0.2688 0.518267,-0.96146 -0.802,-3.13906 -1.316133,-3.65626 -0.117733,-0.1172 0.1532,-0.45827 0.2704,-0.3984 0.1172,0.0588 1.096267,0.75826 1.635867,1.59533 0.542266,0.83227 1.5484,2.8948 2.4188,3.38693 0.870266,0.4948 3.245333,1.21454 3.617733,0.58907 0.3776,-0.62187 -0.998,-2.52813 -1.079733,-2.61973 -0.0812,-0.0959 0.244266,-0.49334 0.366133,-0.40054 2.113067,1.60827 4.182269,5.04534 4.182269,6.99787 0,1.81413 -3.362936,4.3656 -9.297869,7.07027 -0.224533,0.10373 -0.454133,0.2048 -0.685467,0.30946 -0.970266,0.50574 -0.472933,0.89427 3.0928,3.27814 0.138,0.09 0.252,0.12653 0.4244,0.12653 0.174,0 4.781734,0 4.781734,0 0,0 0,11.67293 0,11.8932 0,0.1292 -0.07187,0.24787 -0.231734,0.19173 -1.6864,-0.5704 -2.809866,-2.262 -2.809866,-2.262 0,0 -0.5328,2.238 -2.080267,2.67814 -1.549467,0.44533 -3.402,-2.06934 -5.757733,-6.00947 0,0 -2.7224,0.77707 -6.803733,2.52667 -0.189067,0.0837 -0.366667,0.014 -0.447334,-0.1048 -0.0844,-0.11974 -1.3672,-1.94787 -1.442666,-2.05414 -0.2776,-0.39426 -0.2256,-0.96826 0.164,-1.33533 4.8052,-4.54427 6.7344,-6.8824 7.453599,-7.8652 0.214134,-0.2896 -0.0077,-0.34213 -0.511866,-0.35773 -2.35,-0.0839 -3.738133,0.36666 -5.461467,2.34533 -0.11,0.12547 -0.659466,-0.0412 -0.540666,-0.33333 0.610933,-1.5324 0.708266,-1.61827 0.615066,-1.95 -0.09627,-0.33027 -0.442666,-0.82774 -1.597866,-0.8448 -0.2396,-0.004 -0.274534,-0.60267 -0.04693,-0.63187 1.331334,-0.16773 2.164667,-0.51347 2.365734,-0.95933 0.1432,-0.30787 0.08427,-1.35467 0.0932,-1.53907 0.012,-0.25787 0.5052,-0.3364 0.580666,-0.1156 0.0776,0.21773 0.557334,1.4744 1.061467,1.66973 0.505733,0.19427 2.821867,0.8808 3.379733,0.76307 0.5552,-0.1172 0.673467,-0.59213 0.6208,-0.9052 -0.164,-0.94893 -0.4896,-1.74893 -0.948933,-2.0432 -0.458933,-0.29173 -2.681733,-1.7 -2.800533,-1.80373 -0.116667,-0.1036 0.04587,-0.47867 0.200533,-0.45 0.151067,0.0385 2.342133,0.72813 2.578133,0.7656 0.235867,0.0324 0.516133,-0.15467 0.598933,-0.37854 0.08333,-0.2224 0.442134,-1.63133 0.5016,-1.81933 0.05627,-0.1896 0.518667,-0.15467 0.539067,0.0464 0.026,0.2 -0.06253,2.0192 0.0041,2.24373 0.07187,0.22294 0.5396,2.1052 1.138534,2.714 0.5984,0.61094 0.9292,0.6704 1.903066,0.27147 0.976134,-0.3996 5.6548,-3.07613 6.922934,-4.53333 0.317733,-0.3636 0.669333,-1.4272 -1.4088,-2.20054 -1.8136,-0.674 -10.662,-3.46933 -16.150533,2.88334 -0.09787,0.11346 -0.5312,-0.0876 -0.4464,-0.24854 1.093333,-2.03333 1.2104,-2.37386 1.045866,-2.82386 -0.165066,-0.4464 -0.438533,-0.8604 -2.069733,-0.9844 -0.1516,-0.0147 -0.208933,-0.45054 -0.02187,-0.49374 z m 24.296269,0 c 1.96306,-0.49586 3.02133,-0.76613 3.02133,-1.16413 0,-0.40053 -1.84573,-2.11773 -1.976,-2.22347 -0.12867,-0.10413 0.18493,-0.45306 0.37653,-0.35253 0.9276,0.4932 2.64334,1.23547 3.5032,0.66973 0.8572,-0.56186 0.5104,-2.42026 0.4588,-2.7172 -0.024,-0.128 0.4328,-0.30306 0.5156,-0.102 0.0824,0.1968 1.16574,3.102 2.0464,3.9344 0.88027,0.83747 2.936,0.6952 3.45467,-0.2688 0.51773,-0.96146 -0.7968,-3.13906 -1.31507,-3.65626 -0.1188,-0.1172 0.152,-0.45827 0.2708,-0.3984 0.1156,0.0588 1.09534,0.75826 1.63654,1.59533 0.54213,0.83227 1.54733,2.8948 2.41706,3.38693 0.87147,0.4948 3.2448,1.21454 3.61934,0.58907 0.37653,-0.62187 -0.99734,-2.52813 -1.07974,-2.61973 -0.0839,-0.0959 0.24174,-0.49334 0.36414,-0.40054 2.11613,1.60827 4.18333,5.04534 4.18333,6.99787 0,1.81413 -3.3656,4.3656 -9.29893,7.07027 -0.22454,0.10373 -0.45107,0.2048 -0.686,0.30946 -0.96974,0.50574 -0.4708,0.89427 3.09426,3.27814 0.13747,0.09 0.25107,0.12653 0.42347,0.12653 0.1724,0 4.7828,0 4.7828,0 0,0 0,11.67293 0,11.8932 0,0.1292 -0.0703,0.24787 -0.23067,0.19173 -1.68493,-0.5704 -2.81053,-2.262 -2.81053,-2.262 0,0 -0.53227,2.238 -2.0828,2.67814 -1.54733,0.44533 -3.40053,-2.06934 -5.75307,-6.00947 0,0 -2.724,0.77707 -6.8036,2.52667 -0.1912,0.0837 -0.36773,0.014 -0.45,-0.1048 -0.0844,-0.11974 -1.36773,-1.94787 -1.44173,-2.05414 -0.27973,-0.39426 -0.22653,-0.96826 0.16253,-1.33533 4.8052,-4.54427 6.7348,-6.8824 7.45254,-7.8652 0.2152,-0.2896 -0.006,-0.34213 -0.5088,-0.35773 -2.35107,-0.0839 -3.74067,0.36666 -5.46307,2.34533 -0.1088,0.12547 -0.65933,-0.0412 -0.53907,-0.33333 0.60627,-1.5324 0.7068,-1.61827 0.61467,-1.95 -0.0953,-0.33027 -0.44427,-0.82774 -1.6,-0.8448 -0.2412,-0.004 -0.27347,-0.60267 -0.0453,-0.63187 1.33066,-0.16773 2.16506,-0.51347 2.36773,-0.95933 0.14267,-0.30787 0.0796,-1.35467 0.09,-1.53907 0.0109,-0.25787 0.5052,-0.3364 0.58187,-0.1156 0.0776,0.21773 0.55773,1.4744 1.0624,1.66973 0.50426,0.19427 2.82146,0.8808 3.3776,0.76307 0.55533,-0.1172 0.6724,-0.59213 0.62346,-0.9052 -0.16613,-0.94893 -0.4916,-1.74893 -0.95106,-2.0432 -0.45574,-0.29173 -2.68334,-1.7 -2.80147,-1.80373 -0.11773,-0.1036 0.0453,-0.47867 0.19947,-0.45 0.1536,0.0385 2.34586,0.72813 2.5796,0.7656 0.2376,0.0324 0.51626,-0.15467 0.6,-0.37854 0.0824,-0.2224 0.44226,-1.63133 0.50266,-1.81933 0.0541,-0.1896 0.5156,-0.15467 0.538,0.0464 0.0256,0.2 -0.064,2.0192 0.005,2.24373 0.0713,0.22294 0.53907,2.1052 1.138,2.714 0.6,0.61094 0.93027,0.6704 1.90107,0.27147 0.9776,-0.3996 5.65573,-3.07613 6.92613,-4.53333 0.3156,-0.3636 0.6656,-1.4272 -1.41,-2.20054 -1.81347,-0.674 -10.664,-3.46933 -16.15093,2.88334 -0.0985,0.11346 -0.53134,-0.0876 -0.44747,-0.24854 1.09267,-2.03333 1.212,-2.37386 1.0464,-2.82386 -0.16413,-0.4464 -0.43907,-0.8604 -2.06827,-0.9844 -0.15306,-0.0147 -0.2088,-0.45054 -0.0235,-0.49374 z m 24.29693,0 c 1.96293,-0.49586 3.02133,-0.76613 3.02133,-1.16413 0,-0.40053 -1.84786,-2.11773 -1.97506,-2.22347 -0.1276,-0.10413 0.18493,-0.45306 0.37453,-0.35253 0.92867,0.4932 2.64587,1.23547 3.5052,0.66973 0.85787,-0.56186 0.51093,-2.42026 0.4552,-2.7172 -0.0213,-0.128 0.43467,-0.30306 0.52133,-0.102 0.0773,0.1968 1.16134,3.102 2.044,3.9344 0.88267,0.83747 2.93867,0.6952 3.45334,-0.2688 0.52133,-0.96146 -0.8,-3.13906 -1.31334,-3.65626 -0.12,-0.1172 0.15334,-0.45827 0.268,-0.3984 0.11467,0.0588 1.09734,0.75826 1.63467,1.59533 0.54533,0.83227 1.55067,2.8948 2.42133,3.38693 0.868,0.4948 3.24534,1.21454 3.62,0.58907 0.37734,-0.62187 -1,-2.52813 -1.08,-2.61973 -0.0827,-0.0959 0.24134,-0.49334 0.36267,-0.40054 2.11467,1.60827 4.184,5.04534 4.184,6.99787 0,1.81413 -3.36267,4.3656 -9.29733,7.07027 -0.22534,0.10373 -0.45467,0.2048 -0.68534,0.30946 -0.972,0.50574 -0.47333,0.89427 3.09467,3.27814 0.13467,0.09 0.248,0.12653 0.42133,0.12653 0.172,0 4.78267,0 4.78267,0 0,0 0,11.67293 0,11.8932 0,0.1292 -0.072,0.24787 -0.232,0.19173 -1.68667,-0.5704 -2.80933,-2.262 -2.80933,-2.262 0,0 -0.53334,2.238 -2.08267,2.67814 -1.54667,0.44533 -3.4,-2.06934 -5.756,-6.00947 0,0 -2.724,0.77707 -6.80307,2.52667 -0.19053,0.0837 -0.3672,0.014 -0.44786,-0.1048 -0.0839,-0.11974 -1.36974,-1.94787 -1.4412,-2.05414 -0.28014,-0.39426 -0.22707,-0.96826 0.16093,-1.33533 4.8048,-4.54427 6.73653,-6.8824 7.45253,-7.8652 0.21467,-0.2896 -0.005,-0.34213 -0.51066,-0.35773 -2.3512,-0.0839 -3.73707,0.36666 -5.4632,2.34533 -0.1072,0.12547 -0.6568,-0.0412 -0.538,-0.33333 0.6104,-1.5324 0.70786,-1.61827 0.61666,-1.95 -0.0953,-0.33027 -0.44213,-0.82774 -1.59946,-0.8448 -0.24374,-0.004 -0.27547,-0.60267 -0.0473,-0.63187 1.3328,-0.16773 2.16507,-0.51347 2.36867,-0.95933 0.14267,-0.30787 0.0797,-1.35467 0.0891,-1.53907 0.012,-0.25787 0.50733,-0.3364 0.58493,-0.1156 0.0744,0.21773 0.55573,1.4744 1.06147,1.66973 0.50306,0.19427 2.8192,0.8808 3.37386,0.76307 0.55867,-0.1172 0.676,-0.59213 0.62267,-0.9052 -0.16533,-0.94893 -0.488,-1.74893 -0.94533,-2.0432 -0.45867,-0.29173 -2.68507,-1.7 -2.80387,-1.80373 -0.1172,-0.1036 0.048,-0.47867 0.20107,-0.45 0.15266,0.0385 2.34146,0.72813 2.57746,0.7656 0.236,0.0324 0.51734,-0.15467 0.59867,-0.37854 0.0853,-0.2224 0.44267,-1.63133 0.50267,-1.81933 0.06,-0.1896 0.51866,-0.15467 0.54,0.0464 0.0227,0.2 -0.0667,2.0192 0.005,2.24373 0.0693,0.22294 0.536,2.1052 1.13467,2.714 0.60133,0.61094 0.92933,0.6704 1.90666,0.27147 0.97334,-0.3996 5.652,-3.07613 6.92134,-4.53333 0.31466,-0.3636 0.672,-1.4272 -1.40934,-2.20054 -1.812,-0.674 -10.66266,-3.46933 -16.15093,2.88334 -0.0973,0.11346 -0.53067,-0.0876 -0.44533,-0.24854 1.0928,-2.03333 1.21306,-2.37386 1.04853,-2.82386 -0.16933,-0.4464 -0.44067,-0.8604 -2.07347,-0.9844 -0.15053,-0.0147 -0.2084,-0.45054 -0.0213,-0.49374 z M 72.020798,152.7772 H 155.25333 V 89.131998 H 72.020798 V 152.7772" /><path
     id="path26"
     style="fill:#231f20;fill-opacity:1;fill-rule:nonzero;stroke:none;stroke-width:0.133333"
     d="m 87.556798,123.61413 c -0.553734,0.12293 -0.918267,0.6016 -0.813067,1.07187 0.1016,0.4724 0.633867,0.75 1.1896,0.63493 0.549467,-0.124 0.914,-0.6016 0.812,-1.07493 -0.1036,-0.4704 -0.636,-0.75214 -1.188533,-0.63187" /><path
     id="path28"
     style="fill:#231f20;fill-opacity:1;fill-rule:nonzero;stroke:none;stroke-width:0.133333"
     d="m 111.8552,123.61413 c -0.5552,0.12293 -0.91974,0.6016 -0.81507,1.07187 0.1052,0.4724 0.6328,0.75 1.188,0.63493 0.55107,-0.124 0.91973,-0.6016 0.8136,-1.07493 -0.10213,-0.4704 -0.63333,-0.75214 -1.18653,-0.63187" /><path
     id="path30"
     style="fill:#231f20;fill-opacity:1;fill-rule:nonzero;stroke:none;stroke-width:0.133333"
     d="m 136.15066,123.61413 c -0.55333,0.12293 -0.916,0.6016 -0.81333,1.07187 0.10533,0.4724 0.63067,0.75 1.18667,0.63493 0.55466,-0.124 0.91733,-0.6016 0.81333,-1.07493 -0.10133,-0.4704 -0.63467,-0.75214 -1.18667,-0.63187" /><path
     id="path32"
     style="fill:#231f20;fill-opacity:1;fill-rule:nonzero;stroke:none;stroke-width:0.133333"
     d="m 155.25333,82.206665 -41.56587,-18.170667 -41.666662,18.228 v 3.148 h 83.232532 v -3.205333" /><path
     id="path34"
     style="fill:#231f20;fill-opacity:1;fill-rule:nonzero;stroke:none;stroke-width:0.133333"
     d="m 183.084,73.337332 c 2.268,0 4.11333,-1.845334 4.11333,-4.113334 0,-2.268 -1.84533,-4.113333 -4.11333,-4.113333 -2.268,0 -4.11334,1.845333 -4.11334,4.113333 0,2.268 1.84534,4.113334 4.11334,4.113334" /><path
     id="path36"
     style="fill:#231f20;fill-opacity:1;fill-rule:nonzero;stroke:none;stroke-width:0.133333"
     d="m 44.624532,73.321332 c 2.268133,0 4.113467,-1.845334 4.113467,-4.113334 0,-2.269333 -1.845334,-4.114666 -4.113467,-4.114666 -2.267733,0 -4.113066,1.845333 -4.113066,4.114666 0,2.268 1.845333,4.113334 4.113066,4.113334" /><path
     id="path38"
     style="fill:#231f20;fill-opacity:1;fill-rule:nonzero;stroke:none;stroke-width:0.133333"
     d="m 30.971866,109.54226 4.0688,0.70414 c 1.7088,0.29386 5.264533,0.90573 6.1604,1.49693 0.149466,0.0875 0.352533,0.54013 0.340666,1.21147 -0.0057,0.0349 -0.0057,0.0349 -0.02453,0.876 l -0.0016,0.0912 0.0328,0.0844 c 0.06147,0.15773 0.1604,0.29213 0.8828,0.5916 l 0.183333,0.0756 0.749067,-0.34227 0.06667,-0.1744 c 0.0296,-0.0772 0.0536,-0.13813 0.321866,-3.6672 l 0.503067,-3.81933 -0.01093,-0.0661 c -0.02453,-0.15306 -0.0828,-0.2916 -0.614534,-0.68493 l -0.142266,-0.1052 -0.931734,0.0975 -0.119333,0.17333 c -0.04787,0.0693 -0.112933,0.16467 -0.284267,1.07613 -0.145333,0.76867 -0.3876,1.0536 -0.499466,1.09734 -0.3068,0.11466 -1.557867,0.28386 -6.5276,-0.57654 l -3.7824,-0.65413 c -5.4244,-0.9396 -7.826,-3.436 -7.137467,-7.419866 0.316667,-1.830666 1.028667,-3.113466 2.176,-3.922933 1.523467,-1.072933 3.843867,-1.3196 7.091733,-0.756933 l 7.105734,1.229333 c 3.357333,0.583333 3.353066,0.610933 3.154133,2.050533 l -0.1312,0.900534 0.02813,0.09533 c 0.06093,0.206267 0.244267,0.565067 0.796267,0.651067 0.3328,0.04733 0.7756,-0.01253 1.0224,-0.324534 l 0.05947,-0.09787 c 0.02653,-0.0604 0.04627,-0.104134 0.869733,-4.210934 l 1.0464,-4.173466 -0.01773,-0.096 c -0.06667,-0.376 -0.345333,-0.654667 -0.758933,-0.766667 -0.396266,-0.110667 -0.7708,-0.03467 -1.000933,0.204 l -0.06827,0.092 c -0.02547,0.04533 -0.05413,0.096 -0.319733,0.954667 -0.4224,1.342666 -0.465733,1.484 -4.012533,0.870666 l -7.766667,-1.344 c -4.080266,-0.708 -6.761466,-0.290666 -8.6844,1.346667 -1.557333,1.289333 -2.591733,3.372533 -3.074533,6.1892 -0.466667,2.678666 0.08027,5.422396 1.4224,7.157326 1.4844,1.95987 4.045333,3.2312 7.8292,3.8864" /><path
     id="path40"
     style="fill:#231f20;fill-opacity:1;fill-rule:nonzero;stroke:none;stroke-width:0.133333"
     d="m 46.541732,143.1308 c 0.111334,0.0745 0.443733,0.41986 0.907733,1.30786 l 0.273467,0.53587 0.0984,0.0657 c 0.345333,0.22907 0.755733,0.2676 1.1156,0.10094 0.305733,-0.13067 0.523467,-0.37854 0.595867,-0.6812 l 0.0172,-0.0735 -0.0068,-0.0744 c -0.0068,-0.0776 -0.01253,-0.14013 -1.2552,-3.44173 l -1.206267,-3.7932 -0.0656,-0.1292 c -0.221867,-0.30774 -0.577066,-0.45467 -0.983333,-0.39587 -0.400533,0.06 -0.7328,0.30107 -0.866667,0.6292 l -0.03227,0.13333 c -0.0057,0.0615 -0.01307,0.14534 0.123466,0.76934 0.2828,1.32546 0.196267,1.612 0.172934,1.65466 -0.110934,0.13067 -0.9292,0.8468 -6.141734,2.24267 l -6.926533,1.85893 c -0.04427,0.0119 -0.0912,0.0239 -0.1396,0.0369 0.6412,-0.93694 1.757867,-2.67347 3.811467,-5.87707 l 0.0016,-0.003 c 0.09573,-0.1468 2.671866,-4.064 2.671866,-4.064 l 0.402534,-0.60213 c 1.053733,-1.57653 3.852666,-5.76347 5.1224,-6.65573 l 0.174,-0.1344 0.01973,-0.2104 c 0.0068,-0.0744 0.02813,-0.302 -0.378667,-1.6984 l -0.6916,-3.64174 -0.07547,-0.178 c -0.210534,-0.29853 -0.512,-0.44173 -0.876134,-0.41773 -0.392666,0.0276 -0.768133,0.23853 -0.956266,0.53907 l -0.05613,0.13173 c -0.01573,0.062 -0.03907,0.15573 0.02187,0.7932 0.07027,0.8 -0.024,1.44893 -0.256267,1.81253 -0.4584,0.65987 -0.923466,0.84014 -1.875066,1.0912 l -9.4072,2.49107 -0.542267,0.14693 c -1.576,0.42907 -4.860933,1.3172 -5.8708,1.2104 -0.0484,-0.008 -0.287466,-0.18173 -0.494266,-0.85053 l -0.280267,-0.83547 -0.07867,-0.14373 c -0.1036,-0.12813 -0.238,-0.22867 -0.925466,-0.26773 l -0.177067,-0.0109 -0.7448,0.6084 -0.01253,0.1984 c -0.0052,0.086 -0.0099,0.1536 0.8032,3.49787 l 0.692133,3.77507 0.0536,0.14586 c 0.07093,0.12387 0.1824,0.24894 0.757333,0.4156 l 0.173467,0.0511 0.7364,-0.37613 0.2,-0.18014 0.05,-0.2016 c 0.0188,-0.1916 -0.0448,-0.8292 -0.08587,-1.20466 -0.04227,-0.31094 -0.05213,-0.59214 -0.0292,-0.83494 0.03333,-0.34533 0.1224,-0.45466 0.1224,-0.45466 l -0.0021,5.3e-4 c 0.667733,-0.58387 4.141733,-1.65733 6.314133,-2.236 l 7.0296,-1.8864 c 0.3048,-0.0817 0.579733,-0.14947 0.823467,-0.20307 -0.940534,1.376 -2.6536,3.88374 -2.6536,3.88374 -0.0552,0.0839 -6.5104,9.7688 -6.5104,9.7688 -2.6688,4.0016 -3.3688,4.95213 -3.7276,5.3828 l -0.1308,0.15733 0.03027,0.20253 c 0.1,0.66574 0.4864,1.0844 1.035333,1.1188 l 0.0964,0.005 0.0912,-0.0333 c 0.3344,-0.12493 1.495333,-0.49587 5.508267,-1.57027 l 8.231333,-2.21093 c 1.384266,-0.37347 5.033866,-1.35733 6.183866,-1.19173" /><path
     id="path42"
     style="fill:#231f20;fill-opacity:1;fill-rule:nonzero;stroke:none;stroke-width:0.133333"
     d="m 57.160932,159.33346 c 0.338,0.15987 0.7208,0.10254 1.0516,-0.15733 0.128133,-0.1 0.535333,-0.4604 0.478133,-0.93493 l -0.03227,-0.12134 c -0.02667,-0.0625 -0.04587,-0.10773 -2.483867,-3.4864 l -2.289067,-3.5256 -0.131866,-0.13173 c -0.324934,-0.21613 -0.735334,-0.19893 -1.126534,0.036 -0.3568,0.21453 -0.551066,0.5104 -0.5468,0.83427 l 0.01667,0.11626 c 0.01613,0.0588 0.0328,0.11707 0.476,0.89467 0.701067,1.2344 0.742667,1.30787 -2.197467,3.32147 l -9.811466,6.71293 c -2.871867,1.96986 -2.909333,1.924 -3.8796,0.81613 l -0.643733,-0.73747 -0.132267,-0.0359 c -0.393333,-0.11054 -0.798,0 -1.1068,0.3 -0.2568,0.2452 -0.381333,0.54786 -0.3412,0.83226 l 0.0292,0.10774 c 0.02707,0.0667 0.0448,0.11093 2.519733,3.55053 l 2.252134,3.46827 0.136933,0.13493 c 0.150533,0.0968 0.317733,0.14533 0.493733,0.14533 0.201067,0 0.414134,-0.0631 0.6276,-0.18813 0.351067,-0.20827 0.550534,-0.51187 0.547467,-0.83227 l -0.01773,-0.11973 c -0.01347,-0.048 -0.0292,-0.10267 -0.438534,-0.8896 -0.682266,-1.30787 -0.7088,-1.3584 2.1604,-3.32133 l 9.812533,-6.7172 c 2.939067,-2.0136 2.993734,-1.94947 3.888534,-0.848 l 0.530266,0.65213 0.158267,0.124" /><path
     id="path44"
     style="fill:#231f20;fill-opacity:1;fill-rule:nonzero;stroke:none;stroke-width:0.133333"
     d="m 80.691198,178.74546 c 0.399467,-0.0308 0.757733,-0.2828 0.959333,-0.67347 l 5.34e-4,-0.002 c 0.154666,-0.30253 0.1724,-0.6104 0.04947,-0.86346 l -0.074,-0.10947 c -0.05147,-0.0572 -0.09267,-0.10147 -2.805733,-1.80933 l -2.840133,-2.04534 -0.106667,-0.0188 c -0.3876,-0.0588 -0.7584,0.0839 -1.022933,0.4 -0.1704,0.20427 -0.2688,0.43187 -0.284934,0.66667 -0.0052,0.0917 0.0027,0.18293 0.024,0.26933 l 0.0552,0.13494 c 0.0312,0.0505 0.0792,0.1276 0.578134,0.55826 0.374933,0.324 0.548933,0.53747 0.626,0.648 l -0.7448,0.652 -13.027067,7.4256 c 0.7536,-2.9 2.785467,-10.7256 2.785467,-10.7256 0.578133,-2.14786 1.1192,-3.76506 1.3656,-4.41453 0.151067,0.064 0.416667,0.1984 0.860933,0.488 l 0.5244,0.33067 0.115734,0.008 c 0.3864,0.0229 0.7244,-0.14266 0.947333,-0.47453 0.209867,-0.31867 0.2656,-0.69467 0.148,-1.00413 l -0.05787,-0.1068 c -0.0464,-0.0624 -0.07653,-0.1052 -3.277066,-2.6692 l -2.693734,-2.40787 -0.114133,-0.0265 c -0.388533,-0.0896 -0.749467,0.0172 -1.0224,0.30266 -0.252,0.27187 -0.363467,0.63334 -0.297867,0.9676 l 0.04107,0.1188 c 0.02813,0.0573 0.0636,0.12654 0.5308,0.61094 0.7708,0.8188 0.824533,1.4188 0.302533,3.37453 l -4.119199,15.30773 c -0.361467,1.46414 -0.8812,3.06307 -1.426534,4.38707 l -0.04067,0.0984 0.0073,0.1068 c 0.0072,0.10147 0.01867,0.2692 0.492667,0.80773 l 0.136,0.15374 0.6848,0.22133 0.198933,-0.136 c 1.6772,-1.1416 5.408933,-3.35467 8.066666,-4.85627 l 3.915734,-2.18533 c 3.409866,-1.90107 6.282266,-3.3308 7.824933,-4.0308 0.776,-0.33333 1.202666,-0.25307 1.5984,-0.0333 l 0.9756,0.56413 0.140133,-0.0104" /><path
     id="path46"
     style="fill:#231f20;fill-opacity:1;fill-rule:nonzero;stroke:none;stroke-width:0.133333"
     d="m 101.8812,183.70373 c -0.3312,-0.0183 -2.397336,-0.65734 -4.057202,-1.1692 l -0.103734,-0.0319 c -0.0276,-0.009 -6.0224,-1.8656 -6.0224,-1.8656 v 0 l -3.8228,-1.29067 -0.09747,0.009 c -0.380267,0.0359 -0.6912,0.30253 -0.8516,0.72547 -0.05467,0.14013 -0.209334,0.624 0.08387,0.9932 l 0.0844,0.0813 c 0.03693,0.0265 0.08693,0.0656 0.627067,0.30933 1.3464,0.6 1.398933,0.62294 0.381333,3.912 l -3.557333,11.48694 c -1.021333,3.30106 -1.1656,3.27186 -2.5344,2.97453 l -1.214,-0.25893 -0.1292,0.0521 c -0.380266,0.15213 -0.632266,0.49067 -0.691733,0.92293 -0.05147,0.35307 0.038,0.6692 0.246933,0.86667 l 0.09947,0.0719 c 0.05413,0.0292 0.09733,0.0521 4.498933,1.312 l 11.640133,3.71346 0.1964,-0.18533 c 0.885867,-0.836 2.479067,-3.1188 3.05,-4.1656 l 0.05827,-0.10787 -0.0031,-0.12133 c -0.01,-0.39747 -0.1896,-0.7172 -0.516133,-0.9256 -0.298533,-0.19573 -0.6568,-0.25147 -0.960533,-0.15573 l -0.107734,0.0344 -0.0792,0.0819 c -1.383333,1.42387 -2.4916,2.16094 -2.957333,2.25987 -0.724933,0.1156 -1.7224,-0.0751 -3.958267,-0.76667 -2.890133,-0.89746 -3.1588,-1.40266 -3.281733,-1.63333 -0.251067,-0.50947 5.33e-4,-1.5964 0.455733,-3.06827 l 1.392667,-4.4984 c 0.02867,-0.0932 0.06507,-0.21093 0.09587,-0.29066 0.122933,0.0251 0.3244,0.088 0.494266,0.14013 l 1.8484,0.5744 c 1.0896,0.3376 1.890667,0.61053 2.270267,0.8584 0.298,0.18027 0.383867,0.42707 0.340133,0.9792 l -0.107733,1.43173 0.0348,0.0932 c 0.134933,0.35987 0.454133,0.6172 0.878133,0.7068 0.359334,0.076 0.6948,0 0.9188,-0.2068 l 0.0724,-0.0864 c 0.04533,-0.0693 0.07493,-0.11613 0.406267,-1.37866 l 0.4968,-1.8724 1.161467,-3.28907 -0.01613,-0.112 c -0.05213,-0.3588 -0.281733,-0.63853 -0.639066,-0.78387 -0.297867,-0.12706 -0.734934,-0.18533 -1.0724,0.0319 l -0.09013,0.076 c -0.04373,0.0479 -0.0812,0.0896 -0.766666,1.36507 -0.3072,0.56666 -0.4224,0.56986 -0.609867,0.57506 -0.2536,0.0129 -1.0812,-0.15626 -2.590667,-0.62293 -0.0624,-0.0188 -1.8448,-0.5704 -1.8448,-0.5704 -0.185333,-0.0588 -0.376,-0.1176 -0.486933,-0.16147 0.02133,-0.088 0.05987,-0.21346 0.09533,-0.328 l 1.978667,-6.38133 c 0.08013,-0.26253 0.168667,-0.55053 0.233867,-0.7016 0.122933,0.0281 0.3088,0.0855 0.3828,0.1084 l 2.296266,0.70933 c 1.333334,0.41307 2.338667,0.7584 2.907867,1.09427 1.189067,0.72133 1.1932,1.612 1.200533,3.08707 v 0.1932 l 0.0276,0.15626 c 0.0812,0.22494 0.278667,0.5172 0.756795,0.64107 0.14214,0.036 0.63587,0.12813 0.99054,-0.1624 l 0.0959,-0.1084 c 0.0313,-0.0495 0.0896,-0.1412 0.20054,-0.65827 0.40786,-1.90946 0.74266,-3.5376 0.72133,-4.1084 l -0.0197,-0.5292 -0.5308,-0.0323" /><path
     id="path48"
     style="fill:#231f20;fill-opacity:1;fill-rule:nonzero;stroke:none;stroke-width:0.133333"
     d="m 123.8588,193.98133 c -0.80307,0.74373 -2.02494,0.95053 -2.99947,1.04693 -1.052,0.1036 -1.55933,0.0848 -1.80773,0.12493 -0.0261,-0.18906 -0.0516,-0.4572 -0.0677,-0.62813 l -0.76253,-7.788 c -0.008,-0.0864 -0.0312,-0.35053 -0.0541,-0.35827 0.17813,-0.124 1.16666,-0.17346 1.53906,-0.19226 3.6468,-0.16507 5.07814,1.93493 5.22134,3.98133 0.124,1.79053 -0.2172,3.00413 -1.0688,3.81347 z m 11.58253,10.06506 -0.0667,-0.0156 -0.068,0.003 c -0.80666,0.0359 -1.59733,-0.16667 -2.15613,-0.54533 -2.48907,-1.5948 -4.64533,-4.13747 -7.65107,-7.83494 -0.0115,-0.0129 -0.0213,-0.0265 -0.0301,-0.0385 0.98947,-0.5708 3.91507,-2.5896 3.5452,-6.34267 -0.28947,-2.94946 -2.10773,-4.27453 -3.57387,-4.86253 -1.57346,-0.66667 -3.35946,-0.57493 -5.30733,-0.4692 l -0.55107,0.0291 c -3.04213,0.15573 -5.38493,0.36253 -7.3708,0.64946 l -0.1464,0.048 c -0.33386,0.1744 -0.51813,0.48907 -0.51813,0.8692 -0.0105,0.31307 0.10773,0.76147 0.47493,1 l 0.0979,0.048 c 0.0631,0.0213 0.1172,0.0411 1.24587,0.12387 0.82506,0.06 0.9724,0.0719 1.2808,3.34427 l 1.1552,12.0344 c 0.32386,3.312 0.32386,3.312 -1.09894,3.56253 l -0.97613,0.1708 -0.1052,0.11467 c -0.2796,0.30666 -0.37347,0.70253 -0.262,1.11866 0.0912,0.33334 0.28333,0.57614 0.5396,0.68707 l 0.1136,0.0317 c 0.0115,0.003 0.0219,0.004 0.052,0.004 0.14907,0 0.76613,-0.0391 4.22347,-0.30414 l 3.9552,-0.1068 0.1932,-0.0495 c 0.1792,-0.0907 0.4844,-0.31974 0.52146,-0.85574 0.0219,-0.42133 -0.12506,-0.7932 -0.39226,-0.99213 l -0.1192,-0.0641 c -0.0537,-0.0183 -0.11934,-0.0421 -0.888,-0.112 -1.49694,-0.12654 -1.5256,-0.12907 -1.86774,-3.588 l -0.41146,-4.1864 c -0.004,-0.0428 -0.009,-0.088 -0.012,-0.12814 0.18333,-0.0401 0.55573,-0.0761 0.97493,-0.1188 1.13813,-0.1088 1.59067,0.13494 2.0552,0.65787 l 3.94747,4.57547 c 2.81826,3.08546 4.62973,3.90573 7.83786,3.4948 l 1.59067,-0.3932 0.0893,-0.0839 c 0.25734,-0.24533 0.35334,-0.57347 0.26,-0.90267 -0.0853,-0.28693 -0.30266,-0.5 -0.58133,-0.5724" /><path
     id="path50"
     style="fill:#231f20;fill-opacity:1;fill-rule:nonzero;stroke:none;stroke-width:0.133333"
     d="m 149.97733,179.75999 v 0 0.002 z m -0.14533,5.836 -3.13867,-0.0985 c -2.02933,-0.0973 -3.388,-0.71453 -4.03733,-1.83227 -0.18267,-0.312 -0.48934,-0.94266 -0.51067,-1.65826 -0.0293,-1.0844 0.60133,-2.0068 1.87333,-2.74694 2.336,-1.35733 3.89734,-0.30933 5.116,0.8932 l 0.13867,0.0932 c 0.21733,0.0964 0.56,0.15374 0.95467,-0.1036 0.26533,-0.17493 0.55466,-0.49893 0.57333,-0.8812 l 0.007,-0.1308 -0.0653,-0.11506 c -0.76533,-1.3636 -2.02666,-2.89067 -2.72266,-3.45987 l -0.112,-0.0917 -0.144,-0.0109 c -0.092,-0.005 -0.244,-0.0187 -1.36534,0.4016 -0.93866,0.2188 -2.11066,0.69587 -3.056,1.24787 -1.856,1.07707 -3.14666,2.5188 -3.73466,4.1652 -0.596,1.676 -0.41734,3.41187 0.51866,5.0228 1.524,2.6308 4.364,3.3256 6.47867,3.44387 l 3.78533,0.19733 c 2.71467,0.12973 3.61067,1.2948 4.23867,2.37867 0.452,0.77493 0.58533,1.63586 0.37867,2.42293 -0.23067,0.86667 -0.86934,1.62493 -1.848,2.1948 -2.20267,1.2812 -4.47734,0.82907 -6.76534,-1.3376 l -0.10133,-0.0733 c -0.28533,-0.148 -0.604,-0.136 -0.89067,0.0281 -0.268,0.14627 -0.596,0.4676 -0.63866,0.9 l -0.016,0.15307 0.08,0.1308 c 0.836,1.3572 2.47866,3.34106 3.344,3.86666 l 0.10533,0.064 0.124,0.002 c 0.0373,0.001 0.0747,0.001 0.11467,0.001 1.02933,0 2.99866,-0.2256 5.376,-1.612 2.11333,-1.224 3.49733,-2.88133 4.004,-4.79333 0.152,-0.5776 0.22,-1.15987 0.20266,-1.73227 -0.0307,-1.08907 -0.34933,-2.16093 -0.94666,-3.1848 -1.404,-2.4188 -3.79734,-3.6428 -7.32,-3.74427" /><path
     id="path52"
     style="fill:#231f20;fill-opacity:1;fill-rule:nonzero;stroke:none;stroke-width:0.133333"
     d="m 178.39066,179.78813 -0.104,0.0292 c -0.0533,0.0197 -0.108,0.0427 -0.83733,0.55626 -1.22933,0.86507 -1.252,0.8796 -3.57867,-1.7016 l -7.94933,-8.8412 c -2.38133,-2.65106 -2.324,-2.71346 -1.356,-3.74426 l 0.65467,-0.6864 0.0307,-0.1016 c 0.0627,-0.20254 0.108,-0.6036 -0.30266,-1.0224 -0.14934,-0.1468 -0.548,-0.46667 -0.99467,-0.34267 l -0.0907,0.0359 c -0.072,0.0385 -0.11066,0.0589 -3.148,2.9308 l -3.18933,2.7344 -0.11467,0.14786 c -0.16666,0.34694 -0.1,0.75107 0.18934,1.1136 0.344,0.41454 0.68266,0.46134 0.89733,0.428 l 0.108,-0.0307 c 0.056,-0.0229 0.11467,-0.0469 0.82533,-0.588 1.132,-0.85894 1.20134,-0.9068 3.58267,1.73853 l 7.952,8.83907 c 2.32533,2.58746 2.28667,2.63013 1.31333,3.74106 l -0.64133,0.73187 -0.0187,0.1348 c -0.0587,0.4068 0.1,0.78293 0.44534,1.06147 0.21333,0.16933 0.44266,0.25573 0.66266,0.25573 0.0667,0 0.13067,-0.007 0.19334,-0.0224 l 0.112,-0.0443 c 0.0667,-0.0375 0.10666,-0.0599 3.20266,-2.98386 l -0.0173,-0.0187 c 0.32667,-0.24267 1.088,-0.89747 3.144,-2.66147 l 0.11733,-0.15213 c 0.16134,-0.34627 0.092,-0.74893 -0.19066,-1.1036 -0.25334,-0.32027 -0.58667,-0.47867 -0.89734,-0.43333" /><path
     id="path54"
     style="fill:#231f20;fill-opacity:1;fill-rule:nonzero;stroke:none;stroke-width:0.133333"
     d="m 196.55333,156.34546 c -0.16267,-0.10946 -0.57733,-0.33853 -0.992,-0.1376 l -0.11467,0.0813 c -0.0347,0.0333 -0.0787,0.0749 -0.716,0.9844 -0.84,1.16093 -0.87466,1.2052 -3.85466,-0.5032 l -12.9,-7.38227 c -0.16667,-0.0948 -0.34934,-0.19893 -0.46667,-0.27507 0.052,-0.10253 0.12933,-0.23586 0.18133,-0.32906 l 1.17734,-2.05467 c 0.844,-1.47347 1.64266,-2.38293 2.37733,-2.7068 0.15067,-0.0641 0.784,-0.0532 2.068,0.49053 l 0.108,0.0443 0.11467,-0.0109 c 0.40533,-0.0395 0.74666,-0.30934 0.90933,-0.70934 0.15333,-0.35306 0.13733,-0.7104 -0.048,-0.97973 l -0.0693,-0.10253 -0.11334,-0.0536 c -0.924,-0.43334 -3.092,-1.9396 -4.04533,-2.88814 l -0.10933,-0.10773 -0.15067,-0.0199 c -0.588,-0.0801 -1.05333,0.48814 -1.12,0.93027 l -0.0227,0.1536 0.0733,0.136 c 0.38,0.6896 0.40266,0.7292 -0.46,2.23173 l -6.72,11.73747 c -0.88934,1.55893 -1.16267,1.84013 -1.608,1.68547 l -0.11734,-0.0401 -0.12133,0.024 c -0.56133,0.10934 -0.87467,0.82547 -0.85067,1.164 l 0.0133,0.18707 0.14,0.12387 c 0.55466,0.48493 2.45466,2.1824 3.67333,3.60266 l 0.10133,0.1172 0.15467,0.0317 c 0.42133,0.0844 0.80667,-0.0421 1.08933,-0.34787 0.24267,-0.25467 0.35734,-0.58227 0.31467,-0.89853 l -0.0547,-0.16667 -0.0653,-0.0932 c -0.5,-0.69627 -0.93067,-1.29893 -1.144,-2.24427 -0.22267,-0.9744 0.81333,-2.78386 1.25467,-3.5572 l 0.912,-1.59333 c 0.0507,-0.0896 0.13866,-0.24533 0.208,-0.352 0.11866,0.0588 0.28533,0.15627 0.41866,0.23173 l 12.95467,7.41507 c 2.99867,1.7172 2.93733,1.84893 2.35333,3.11466 l -0.51066,1.0916 -0.0427,0.1896 c -0.003,0.40787 0.22,0.75467 0.612,0.95307 0.18533,0.0939 0.37467,0.13907 0.55067,0.13907 0.17066,0 0.32933,-0.0427 0.46133,-0.13067 l 0.0867,-0.0735 c 0.048,-0.0531 0.08,-0.088 2.32,-4.21093 l -0.04,-0.0213 c 0.28666,-0.38493 0.86133,-1.33853 2.28666,-3.70267 l 0.0627,-0.1812 c 0.044,-0.37866 -0.14533,-0.73693 -0.52,-0.9864" /><path
     id="path56"
     style="fill:#231f20;fill-opacity:1;fill-rule:nonzero;stroke:none;stroke-width:0.133333"
     d="m 207.61733,122.20733 c -0.928,-0.7916 -3.37067,-2.12493 -4.47334,-2.576 l -0.11466,-0.0459 -0.12134,0.0167 c -0.396,0.0563 -0.696,0.27347 -0.86933,0.62867 -0.15333,0.3172 -0.16667,0.67813 -0.0347,0.96466 l 0.0467,0.10094 0.088,0.0683 c 1.564,1.21934 2.41867,2.238 2.56667,2.69067 0.19866,0.69893 0.116,1.71253 -0.32534,4.0156 -0.57333,2.98173 -1.04533,3.2964 -1.26133,3.44213 -0.48133,0.30427 -1.58667,0.17507 -3.10133,-0.1156 l -4.55467,-0.8708 -0.36133,-0.13173 c 0.0173,-0.13907 0.0547,-0.32973 0.0773,-0.45053 l 0.368,-1.90627 c 0.18134,-0.9588 0.38,-1.90573 0.60267,-2.35213 0.144,-0.31347 0.37867,-0.42387 0.932,-0.44054 l 1.33867,-0.0511 0.18266,-0.0453 c 0.34134,-0.16666 0.56667,-0.51146 0.61334,-0.94746 0.0373,-0.3708 -0.0747,-0.69734 -0.30534,-0.89627 l -0.108,-0.0683 c -0.0667,-0.0301 -0.12,-0.0547 -1.396,-0.2416 l -1.92533,-0.28853 -3.39333,-0.79067 -0.108,0.0276 c -0.24667,0.062 -0.57067,0.2396 -0.71734,0.73174 -0.0893,0.30933 -0.0947,0.74893 0.16,1.05466 l 0.0827,0.0776 c 0.0547,0.0401 0.0933,0.0683 1.43867,0.60894 0.59866,0.24786 0.61333,0.3588 0.63733,0.54053 0.032,0.262 -0.0373,1.09387 -0.33467,2.6428 l -0.364,1.90053 c -0.036,0.1916 -0.0747,0.38747 -0.108,0.502 -0.088,-0.0115 -0.21733,-0.0364 -0.336,-0.0583 l -6.556,-1.26414 c -0.30266,-0.0577 -0.58933,-0.11293 -0.724,-0.15933 0.008,-0.0943 0.0387,-0.25107 0.0653,-0.3916 l 0.45333,-2.36053 c 0.26133,-1.36347 0.492,-2.3984 0.764,-3.0072 0.58267,-1.2552 1.46267,-1.35947 2.916,-1.5328 l 0.208,-0.0215 0.156,-0.0447 c 0.21467,-0.1068 0.48533,-0.33493 0.55467,-0.8152 0.02,-0.1448 0.064,-0.64626 -0.26667,-0.97346 l -0.124,-0.0869 c -0.0533,-0.0249 -0.15067,-0.0724 -0.68933,-0.12493 -1.93334,-0.19587 -3.58267,-0.35 -4.14934,-0.2636 l -0.528,0.0839 0.032,0.53066 c 0.02,0.33134 -0.38933,2.46254 -0.71866,4.17454 l -1.20667,6.27973 -0.86267,3.94053 0.0213,0.0975 c 0.08,0.3744 0.37866,0.65307 0.81866,0.76507 0.39734,0.1016 0.752,0.0308 0.976,-0.19587 l 0.0627,-0.0771 c 0.0293,-0.0453 0.0613,-0.0989 0.24533,-0.6708 0.444,-1.40213 0.46267,-1.45733 3.848,-0.8084 l 11.80934,2.26827 c 3.39333,0.65373 3.37733,0.79893 3.23466,2.18707 l -0.12533,1.24626 0.0693,0.12294 c 0.19867,0.36253 0.564,0.57293 0.99733,0.5812 0.0107,0 0.024,0 0.036,0 0.33734,0 0.62534,-0.12387 0.79334,-0.34427 l 0.0587,-0.1036 c 0.0253,-0.0615 0.0427,-0.10413 0.80934,-4.61773 l 2.40533,-11.97654 -0.20533,-0.17453" /><path
     id="path58"
     style="fill:#231f20;fill-opacity:1;fill-rule:nonzero;stroke:none;stroke-width:0.133333"
     d="m 184.73733,97.569864 c -0.0267,-0.09107 -0.0587,-0.239066 -0.088,-0.373866 l -0.004,9.33e-4 c -0.032,-0.164533 -0.13867,-0.658267 -0.5,-2.324933 -0.35867,-1.661334 -0.37333,-2.865334 -0.04,-3.582667 0.068,-0.149333 0.544,-0.542667 1.85467,-0.96 l 0.112,-0.03467 0.08,-0.08533 c 0.27866,-0.292 0.35866,-0.702667 0.22266,-1.122667 -0.116,-0.366666 -0.36533,-0.627999 -0.67866,-0.715999 l -0.12267,-0.03467 -0.12267,0.03333 c -0.98266,0.270667 -3.616,0.536 -4.95733,0.438667 l -0.14933,-0.01067 -0.12534,0.08 c -0.2,0.125333 -0.33333,0.32 -0.384,0.564 -0.0707,0.34 0.032,0.690667 0.16534,0.888 l 0.0813,0.118667 0.13733,0.052 c 0.73067,0.272 0.79067,0.294666 1.16,2 l 2.86534,13.245461 c 0.376,1.75 0.36533,2.138 -0.06,2.30614 l -0.116,0.0459 -0.0773,0.0995 c -0.35066,0.45427 -0.10933,1.20053 0.13334,1.4396 l 0.132,0.12867 0.184,0.002 c 1.49466,0.014 3.632,0.11147 5.15066,0.34107 l 0.156,0.024 0.136,-0.0771 c 0.36667,-0.20627 0.576,-0.55 0.59067,-0.9688 0.012,-0.35107 -0.11867,-0.67493 -0.35733,-0.888 l -0.084,-0.0749 -0.21067,-0.0516 c -0.82933,-0.2032 -1.54533,-0.37867 -2.328,-0.95 -0.732,-0.53387 -1.16533,-2.1604 -1.46133,-3.51774 l -0.388,-1.8 c -0.0213,-0.0973 -0.0573,-0.26453 -0.0773,-0.3896 0.12,-0.0301 0.292,-0.0631 0.45067,-0.0932 l 14.632,-2.790661 c 3.39333,-0.645867 3.43466,-0.505734 3.81333,0.837466 l 0.32267,1.161465 0.0853,0.1652 c 0.25867,0.31773 0.65467,0.44053 1.08667,0.33387 0.39733,-0.0948 0.68666,-0.3412 0.77466,-0.6584 l 0.016,-0.10107 c 0.003,-0.0749 0.004,-0.12027 -0.968,-4.694265 l -0.72266,-4.3124 -0.0707,-0.176 c -0.21067,-0.318666 -0.592,-0.466666 -1.04267,-0.410666 -0.40666,0.05333 -0.71066,0.253333 -0.83466,0.545333 l -0.0293,0.102667 c -0.0107,0.06533 -0.02,0.121333 0.0853,1.246666 0.12266,1.422667 0.12666,1.478667 -3.248,2.121334 l -14.64,2.786266 c -0.20667,0.0396 -0.41867,0.08013 -0.54,0.0916" /><path
     id="path60"
     style="fill:#231f20;fill-opacity:1;fill-rule:nonzero;stroke:none;stroke-width:0.133333"
     d="m 52.550532,47.213332 0.114533,-0.02267 c 0.06,-0.02133 0.1224,-0.04267 0.848,-0.54 1.2052,-0.812 1.2052,-0.810667 3.084267,1.816 0.07667,0.102666 4.703733,6.354666 4.703733,6.354666 2.445867,3.342667 4.664,4.902667 7.1844,5.057333 0.173333,0.01333 0.347333,0.02 0.5224,0.02 1.818133,0 3.7156,-0.730666 5.918133,-2.272 2.2756,-1.589333 3.652133,-3.581333 3.979733,-5.757333 0.390667,-2.430667 -0.459866,-5.161333 -2.6,-8.346666 l -2.102666,-3.132 c -1.45,-2.161334 -2.9796,-4.741334 -3.133333,-5.657333 -0.02707,-0.118667 0.16,-0.513334 0.733866,-0.928 l 0.6448,-0.468 0.124534,-0.136 c 0.08907,-0.149334 0.141066,-0.332 -0.111467,-1.044 l -0.06253,-0.174667 -0.762934,-0.373333 -0.172,0.05067 c -0.078,0.024 -0.1348,0.04133 -3.1004,1.949334 l 0.0077,0.01333 c -0.306267,0.156 -1.080667,0.594667 -3.266134,1.834666 l -0.114533,0.09333 c -0.102133,0.113333 -0.1828,0.257333 -0.138,0.868 l 0.01293,0.177333 0.719867,0.673333 0.200533,-0.016 c 0.08173,-0.0067 0.183334,-0.01467 1.008267,-0.422666 0.852667,-0.425334 1.198933,-0.314667 1.280267,-0.273334 0.806666,0.422667 2.645733,3.185334 3.633866,4.670667 l 2.5244,3.765333 c 1.390133,2.069334 2.140133,3.905333 2.229733,5.457333 0.108267,1.862667 -0.710933,3.377334 -2.502666,4.630667 -3.535867,2.472 -6.495333,1.541333 -9.901467,-3.112 l -4.284933,-5.813333 -0.1208,-0.169333 c -1.886,-2.630667 -1.886,-2.630667 -0.895333,-3.590667 l 0.5744,-0.554667 0.1068,-0.158666 c 0.0828,-0.208 0.162533,-0.622667 -0.234933,-1.064 -0.274934,-0.306667 -0.6104,-0.450667 -0.9208,-0.389334 l -0.1192,0.04133 c -0.06467,0.032 -0.110534,0.056 -3.214667,2.708 l -3.227067,2.486666 -0.125466,0.149334 c -0.176667,0.337333 -0.1308,0.761333 0.1276,1.138666 0.220266,0.314667 0.523866,0.482667 0.826533,0.46" /><path
     id="path62"
     style="fill:#231f20;fill-opacity:1;fill-rule:nonzero;stroke:none;stroke-width:0.133333"
     d="m 115.68493,43.998666 0.0968,-0.05733 c 0.21307,-0.124 0.46933,-0.369333 0.4828,-0.826666 0.008,-0.310667 -0.1,-0.736 -0.42493,-0.994667 l -0.12974,-0.072 c -0.0735,-0.02667 -0.14893,-0.05333 -1.28906,-0.07867 -1.01094,-0.03467 -1.10827,-0.328 -1.45934,-1.885333 l -2.9464,-14.581333 c -0.39,-2.156 -0.29106,-2.354667 1.3084,-2.657333 l 0.80627,-0.138667 0.0957,-0.08267 c 0.262,-0.226666 0.37614,-0.576 0.31254,-0.942666 -0.0203,-0.148 -0.11827,-0.652 -0.52347,-0.876 l -0.1416,-0.04933 c -0.0812,-0.01733 -0.13693,-0.02667 -3.0896,0.290666 l -3.09213,0.1 0.0468,0.641334 c 0.0167,0.129333 0.0251,0.265333 0.0292,0.401333 0.0301,1.401333 -0.5808,3.372 -1.44374,6.156 -0.0303,0.1 -2.2052,7.383999 -2.2052,7.383999 -0.002,0.0053 -0.7756,2.428 -1.21933,3.816 C 100.53223,39.004 99.933834,38.164 98.955701,36.838667 l -5.478133,-7.796 c -0.661467,-0.892 -2.4188,-3.258667 -2.512,-4.684 l -0.0588,-0.702667 -3.302134,0.898667 c -0.1208,0.02533 -2.660399,0.521333 -2.660399,0.521333 l -0.174,0.07333 c -0.3,0.210666 -0.463467,0.532 -0.461467,0.905333 0,0.370667 0.145333,0.708 0.388133,0.9 l 0.164,0.084 c 0.1068,0.028 0.238534,0.03333 0.771867,-0.01467 h 0.0099 c 1.667733,-0.117333 1.800533,-0.08133 2.052133,1.721334 0,0.02933 0,0.02933 0.873466,7.351999 l 0.5948,6.769334 0.0796,1.033333 c 0.168267,2.069333 -0.123333,2.18 -1.2088,2.597333 l 0.0011,0.0027 c -0.106267,0.03867 -0.302667,0.117333 -0.7156,0.281333 l -0.165733,0.114667 c -0.2396,0.258667 -0.3244,0.586667 -0.245734,0.948 0.0796,0.364 0.292667,0.662667 0.5708,0.801333 l 0.1656,0.04533 c 0.0099,0.0013 0.01933,0.0027 0.0308,0.0027 0.1156,0 0.459867,-0.076 3.534267,-0.961333 l 3.658933,-0.841333 0.146267,-0.06267 c 0.312533,-0.204 0.471867,-0.549333 0.438133,-0.941333 -0.0224,-0.314667 -0.1776,-0.72 -0.548533,-0.910667 L 94.7599,44.929383 c -0.07813,-0.01067 -0.154133,-0.02133 -1.495333,0.216 -0.345733,0.064 -0.5656,0.05867 -0.6692,-0.01467 C 92.2807,44.912046 92.0579,43.606713 91.9531,42.996046 l -0.994666,-7.374667 -0.4928,-4.383999 1.651066,2.510666 0.02453,-0.01467 c 0.2416,0.402666 1.085866,1.626666 4.020266,5.883999 l 0.576,0.825334 c 1.002134,1.430666 2.678667,3.826666 3.394794,5.208 l 0.0609,0.09067 c 0.24853,0.284 0.62186,0.337334 0.8756,0.3 0.35253,-0.06133 0.61613,-0.248 0.7416,-0.524 l 0.0313,-0.09467 c 0.32133,-1.526667 1.21707,-4.698667 2.28227,-8.08 l 2.71773,-8.764 2.13067,11.605333 c 0.112,0.677333 0.19213,1.166667 0.20053,1.512 0.0104,0.428 0.0131,0.557333 -0.87867,0.716 l -0.9412,0.170667 -0.15413,0.05733 c -0.14107,0.08533 -0.2672,0.209333 -0.38173,0.872 l -0.0308,0.176 0.52973,0.817333 0.18333,0.04 c 0.0917,0.01867 0.1464,0.032 4.16774,-0.361333 l 4.01773,-0.185333" /><path
     id="path64"
     style="fill:#231f20;fill-opacity:1;fill-rule:nonzero;stroke:none;stroke-width:0.133333"
     d="m 142.176,44.141332 0.0533,-0.112 -0.0107,-0.124 c -0.0347,-0.398666 -0.23466,-0.709333 -0.57066,-0.896 -0.30934,-0.177333 -0.672,-0.213333 -0.96934,-0.09733 l -0.104,0.04133 -0.0733,0.08267 c -1.30933,1.493333 -2.37467,2.288 -2.832,2.409333 -0.72133,0.157334 -1.72667,0.016 -3.99333,-0.558666 -2.93174,-0.74 -3.22654,-1.230667 -3.36094,-1.454667 -0.27813,-0.498667 -0.0839,-1.597333 0.2928,-3.090667 l 1.12854,-4.496 0.1548,-0.354666 c 0.13906,0.02533 0.32853,0.07333 0.44893,0.104 l 1.8772,0.473333 c 1.112,0.282667 1.92933,0.516 2.316,0.741333 0.304,0.162667 0.40267,0.402667 0.38933,0.953334 h 0.004 c -0.008,0.144 -0.016,0.477333 -0.0347,1.338666 l -0.001,0.09733 0.0373,0.08933 c 0.14666,0.350667 0.48933,0.6 0.91333,0.666667 0.35467,0.05733 0.68667,-0.032 0.90133,-0.244 l 0.0907,-0.125334 c 0.0293,-0.06 0.0533,-0.110666 0.31333,-1.370666 l 0.40134,-1.897334 0.98666,-3.343999 -0.02,-0.109334 c -0.0693,-0.36 -0.316,-0.629333 -0.69333,-0.76 -0.30533,-0.106666 -0.74267,-0.137333 -1.06133,0.096 l -0.0827,0.07867 c -0.0413,0.05067 -0.076,0.09467 -0.69467,1.404 -0.27733,0.582667 -0.39066,0.589333 -0.57866,0.604 -0.124,0.0093 -0.68134,0.004 -2.61467,-0.484 l -1.8748,-0.473333 c -0.18853,-0.048 -0.3828,-0.09733 -0.4968,-0.136 0.0177,-0.088 0.05,-0.216 0.0801,-0.333334 l 1.6448,-6.497333 c 0.0667,-0.268 0.136,-0.542667 0.18934,-0.689333 0.12533,0.02 0.31466,0.06933 0.38933,0.088 l 2.33067,0.589333 c 1.39466,0.352 2.37733,0.632 2.96,0.937333 1.22266,0.654667 1.276,1.538667 1.36266,3.012 l 0.016,0.209334 0.0333,0.138666 c 0.12933,0.314667 0.40666,0.530667 0.79066,0.608 0.144,0.028 0.63867,0.09067 0.97467,-0.213333 l 0.0947,-0.12 c 0.028,-0.05067 0.08,-0.145333 0.16533,-0.677333 0.30533,-1.918667 0.55333,-3.554667 0.50133,-4.133334 l -0.0547,-0.525333 -0.52934,-0.0027 c -0.34,0 -2.46533,-0.537333 -4.17333,-0.968 -0.0787,-0.02 -6.15373,-1.556 -6.15373,-1.556 l -3.88494,-1.086666 -0.0979,0.01467 c -0.3776,0.06 -0.67347,0.341334 -0.80894,0.769334 -0.12813,0.388 -0.0791,0.748 0.13334,0.988 l 0.0923,0.08 c 0.0369,0.02533 0.0891,0.05867 0.63907,0.272 1.37707,0.528 1.43013,0.548 0.58587,3.889333 l -2.9448,11.657333 c -0.84787,3.352 -0.9916,3.325333 -2.37134,3.104 l -1.23066,-0.194667 -0.12614,0.05867 c -0.36813,0.172 -0.602,0.518667 -0.64426,0.961333 -0.0255,0.362667 0.0803,0.662667 0.29853,0.848 l 0.0839,0.056 c 0.0676,0.036 0.1088,0.05733 4.5848,1.085334 l 2.90266,0.734666 c 0.0817,0.02133 8.64894,2.289333 8.64894,2.289333 l 0.26,0.068 0.18533,-0.193333 c 0.83867,-0.873333 2.312,-3.238666 2.83067,-4.32" /><path
     id="path66"
     style="fill:#231f20;fill-opacity:1;fill-rule:nonzero;stroke:none;stroke-width:0.133333"
     d="m 157.31733,46.925332 c 0.003,-0.0013 0.005,-0.004 0.005,-0.004 0.008,-0.0053 0.008,-0.0067 5.70667,-4.018666 l 0.58933,-0.377334 -2.14133,7.004 c -0.032,0.108 -0.0587,0.192 -0.08,0.257333 -0.0573,-0.036 -0.128,-0.084 -0.21467,-0.145333 l -0.0267,0.036 c -0.35467,-0.305333 -1.288,-0.96 -3.72934,-2.674666 -0.032,-0.02133 -0.0693,-0.048 -0.10933,-0.07733 z m 9.876,-10.596 v -0.0013 c 0.35333,-0.501333 0.85333,-0.776 1.32933,-0.776 0.23867,0 0.47067,0.06933 0.67467,0.213333 0.62133,0.44 0.68133,1.313334 0.14133,2.077334 -0.3,0.425333 -0.692,0.7 -1.10266,0.769333 -0.32134,0.056 -0.62934,-0.01733 -0.90134,-0.209333 -0.26533,-0.186667 -0.43333,-0.456 -0.49066,-0.778667 -0.0707,-0.417333 0.052,-0.877333 0.34933,-1.294667 z m -22.57733,14.636 c 0.048,0.04933 0.10533,0.112 0.85866,0.537333 l 2.02934,1.174667 2.84133,1.872 0.16133,0.068 c 0.40534,0.08 0.78667,-0.06267 1.04934,-0.392 0.252,-0.314667 0.332,-0.710667 0.20533,-1.033333 l -0.0587,-0.105334 c -0.0427,-0.05733 -0.08,-0.106666 -1,-0.802666 -0.16933,-0.126667 -0.25466,-0.208 -0.29733,-0.257334 0.10533,-0.148 0.52,-0.58 2.08667,-1.778666 l 2.28133,-1.554667 c 0.33867,-0.249333 0.33733,-0.252 0.81733,0.08533 l 4.5,3.161334 c 0.316,0.222666 0.48934,0.365333 0.512,0.424 0.0107,0.056 -0.064,0.289333 -0.0693,0.324 -0.02,0.03867 -0.02,0.03867 -1.1,3.786666 -0.11333,0.364 -0.33733,1.08 -0.532,1.438667 -0.0987,-0.02933 -0.27733,-0.104 -0.536,-0.272 l -0.904,-0.581333 -0.10667,-0.01067 c -0.39333,-0.04533 -0.74133,0.133333 -0.96266,0.477333 -0.22267,0.336 -0.268,0.744 -0.11867,1.061334 l 0.0627,0.09867 c 0.0347,0.04133 0.0747,0.08933 0.69866,0.552 l 2.44667,1.86 3.19333,2.689333 0.14134,0.01333 c 0.0333,0.0027 0.0667,0.004 0.0987,0.004 0.34134,0 0.652,-0.168 0.88534,-0.489334 0.208,-0.301333 0.276,-0.628 0.18933,-0.918666 l -0.0507,-0.113334 c -0.0307,-0.048 -0.0613,-0.09733 -0.73866,-0.775999 -0.80267,-0.808 -0.892,-1.249334 -0.0467,-4.017334 0.0187,-0.03733 0.0187,-0.03733 4.04267,-13.697333 l 0.9,-3.054666 c 1.28666,0.116 2.54266,-0.433334 3.272,-1.465334 1.17066,-1.662666 0.728,-3.926666 -1.01067,-5.153333 -1.73733,-1.228 -4.01733,-0.886666 -5.19467,0.776 -0.78133,1.109333 -0.84,2.585333 -0.18266,3.8 l -1.51734,1.058667 -0.001,0.0013 c -0.17067,0.117333 -7.97467,5.398667 -7.97467,5.398667 l -1.09333,0.741333 0.072,0.004 c -1.076,0.718667 -2.76533,1.802667 -3.492,2.253333 l -0.0133,-0.02133 -2.17734,1.426666 c -0.77733,0.538667 -1.368,0.621334 -2.04133,0.278667 l -1.084,-0.537333 -0.11333,0.004 c -0.376,0.01067 -0.69467,0.214666 -0.89734,0.570666 -0.0893,0.157334 -0.28,0.561334 -0.116,0.956 l 0.0853,0.134667" /></svg>
